<svg width="600" height="400" viewBox="0 0 600 400" fill="none" xmlns="http://www.w3.org/2000/svg">
<path d="M136.72 251.392C133.248 250.099 130.111 247.98 127.556 245.203C125.002 242.426 123.1 239.067 122 235.391V165.909C123.467 162.515 125.318 159.317 127.514 156.384C130.317 153.871 133.373 151.683 136.629 149.86C138.998 149.86 141.186 149.288 143.738 149.24C151.531 149.24 159.324 149.24 167.116 149.24H182.201L179.193 150.764C175.925 152.042 173.054 154.232 170.893 157.095C168.732 159.958 167.362 163.385 166.934 167.004C166.184 167.053 165.452 167.267 164.785 167.63C164.119 167.993 163.532 168.499 163.064 169.114C162.596 169.728 162.257 170.439 162.068 171.199C161.879 171.96 161.844 172.753 161.967 173.528C161.967 191.562 161.967 209.611 161.967 227.676C161.837 228.467 161.869 229.278 162.059 230.055C162.25 230.833 162.595 231.56 163.072 232.189C163.549 232.818 164.148 233.335 164.829 233.706C165.51 234.077 166.259 234.294 167.025 234.343C167.265 237.011 168.068 239.591 169.376 241.897C170.684 244.202 172.465 246.177 174.59 247.677C177.061 249.33 179.634 250.81 182.292 252.106H167.435H159.46L136.72 251.392Z" fill="#FA8802"/>
<path d="M167.026 167.052C167.454 163.433 168.823 160.006 170.984 157.143C173.146 154.28 176.016 152.091 179.285 150.813L182.292 149.289H207.22H270.611H392.289H431.207L461.877 150.098C466.675 151.792 470.776 155.146 473.502 159.605C476.229 164.065 477.417 169.363 476.87 174.624C476.536 192.118 476.536 209.58 476.87 227.01C477.417 232.271 476.229 237.569 473.502 242.029C470.776 246.488 466.675 249.842 461.877 251.536C458.551 251.774 455.224 252.107 451.943 252.155C445.016 252.155 438.271 252.155 431.207 252.155H392.289H207.22H182.292C179.634 250.858 177.061 249.379 174.591 247.726C172.46 246.22 170.676 244.238 169.368 241.924C168.059 239.61 167.259 237.021 167.026 234.344C177.143 234.344 187.305 234.344 197.422 234.344C198.835 234.344 200.795 234.344 201.524 233.153C202.724 231.667 203.342 229.762 203.255 227.819C202.891 224.867 200.476 223.581 197.65 223.533H177.234C172.677 223.533 172.677 223.533 172.677 218.771C172.677 203.976 172.677 189.165 172.677 174.339C172.87 173.458 172.87 172.542 172.675 171.662C172.48 170.781 172.095 169.958 171.551 169.256C171.006 168.554 170.315 167.99 169.531 167.609C168.747 167.227 167.89 167.036 167.026 167.052ZM208.041 200.388C208.041 206.437 208.041 212.437 208.041 218.485C207.875 222.336 208.058 226.195 208.587 230.01C208.916 230.95 209.463 231.79 210.179 232.455C210.894 233.12 211.757 233.589 212.689 233.82C223.535 234.153 234.381 233.82 245.227 233.82C245.786 233.866 246.348 233.79 246.878 233.598C247.407 233.406 247.893 233.101 248.304 232.703C248.715 232.304 249.043 231.821 249.266 231.284C249.49 230.747 249.604 230.167 249.602 229.581C249.921 225.486 247.734 223.247 243.131 223.2C236.067 223.2 229.049 223.2 221.986 223.2C219.844 223.2 218.796 222.676 218.932 220.2C218.932 216.58 218.932 212.961 218.932 209.342C218.932 206.913 219.753 206.246 221.94 206.294C227.272 206.294 232.558 206.294 237.89 206.294C240.64 206.383 243.39 206.16 246.093 205.627C246.925 205.509 247.709 205.153 248.36 204.599C249.01 204.045 249.501 203.313 249.779 202.486C250.057 201.659 250.111 200.767 249.935 199.909C249.759 199.052 249.36 198.262 248.782 197.626C247.123 196.065 244.997 195.156 242.766 195.055C235.976 194.721 229.095 195.055 222.35 195.055C219.844 195.055 218.75 194.483 218.932 191.673C219.115 188.295 219.115 184.908 218.932 181.53C218.932 178.72 219.798 178.053 222.305 178.101C229.323 178.101 236.386 178.101 243.404 178.101C247.688 178.101 249.739 175.862 249.602 172.1C249.466 168.338 247.825 167.338 243.359 167.338C234.245 167.338 225.13 167.338 216.016 167.338C210.365 167.338 208.223 168.1 208.086 175.624C207.949 183.816 208.041 192.102 208.041 200.436V200.388ZM332.726 215.294C332.726 219.771 332.726 223.962 332.726 228.153C332.653 228.943 332.75 229.74 333.01 230.486C333.27 231.232 333.685 231.908 334.227 232.464C334.768 233.021 335.422 233.444 336.14 233.704C336.858 233.963 337.622 234.051 338.377 233.963C341.612 233.963 342.934 231.915 342.934 227.724V184.863C342.869 182.268 342.265 179.718 341.163 177.391C340.062 175.064 338.489 173.015 336.554 171.386C334.263 169.55 331.642 168.216 328.847 167.463C326.051 166.71 323.139 166.554 320.285 167.005C317.794 166.931 315.316 167.392 313.003 168.359C310.69 169.326 308.591 170.778 306.835 172.626C305.08 174.473 303.706 176.677 302.798 179.101C301.889 181.526 301.466 184.119 301.555 186.721C301.555 200.388 301.555 214.009 301.555 227.629C301.555 231.82 303.605 234.106 307.023 234.01C310.441 233.915 311.899 232.058 311.945 227.676C311.991 223.295 311.945 219.533 311.945 215.342L332.726 215.294ZM265.325 200.722V185.53C265.325 179.101 266.282 178.148 272.616 178.101C278.951 178.053 284.419 178.101 290.298 178.101C291.054 178.152 291.812 178.046 292.528 177.788C293.243 177.529 293.903 177.125 294.467 176.597C295.032 176.069 295.49 175.429 295.814 174.714C296.139 174 296.325 173.224 296.359 172.434C296.359 169.291 294.035 167.29 290.207 167.243C283.827 167.243 277.492 167.624 271.158 167.243C268.966 167.13 266.776 167.492 264.724 168.307C262.673 169.122 260.806 170.372 259.239 171.978C257.672 173.584 256.441 175.511 255.621 177.638C254.802 179.766 254.413 182.047 254.479 184.339C254.479 195.34 254.479 206.294 254.479 217.295C254.392 219.513 254.738 221.728 255.496 223.802C256.253 225.877 257.407 227.769 258.886 229.364C260.365 230.959 262.138 232.222 264.099 233.078C266.06 233.934 268.167 234.365 270.292 234.344C273.801 234.01 277.401 234.344 281.001 234.344C284.619 234.502 288.16 233.225 290.915 230.77C293.67 228.315 295.436 224.862 295.858 221.104C296.473 213.789 296.656 206.441 296.405 199.103C296.471 198.282 296.368 197.456 296.103 196.681C295.839 195.905 295.418 195.198 294.869 194.607C294.321 194.016 293.658 193.555 292.924 193.254C292.191 192.953 291.404 192.82 290.617 192.864C286.594 192.649 282.564 192.649 278.541 192.864C277.077 192.822 275.654 193.365 274.561 194.383C273.468 195.401 272.789 196.817 272.662 198.341C272.733 199.932 273.397 201.432 274.513 202.518C275.629 203.603 277.107 204.19 278.632 204.151C280.455 204.151 282.369 204.151 284.146 204.151C284.875 204.151 286.06 205.294 286.06 205.96C286.06 210.008 286.06 214.104 285.832 218.199C285.843 218.904 285.704 219.602 285.426 220.244C285.148 220.886 284.736 221.455 284.222 221.91C283.707 222.366 283.103 222.697 282.451 222.878C281.8 223.06 281.118 223.089 280.455 222.962C277.128 222.962 273.801 222.962 270.429 222.962C269.736 223.049 269.034 222.969 268.376 222.727C267.718 222.486 267.122 222.091 266.633 221.571C266.145 221.051 265.777 220.421 265.558 219.729C265.339 219.037 265.275 218.302 265.37 217.58C265.279 212.104 265.325 206.389 265.325 200.722ZM348.312 200.722H348.585V207.246C348.371 212.969 350.008 218.601 353.233 223.232C356.457 227.863 361.081 231.224 366.358 232.772C373.015 234.039 379.798 234.423 386.547 233.915C387.731 233.915 389.6 231.391 390.01 229.724C390.83 226.343 388.142 223.628 384.177 223.438C380.212 223.247 377.022 223.438 373.422 223.438C371.166 223.421 368.949 222.82 366.969 221.69C364.989 220.56 363.308 218.935 362.074 216.961C357.517 210.627 357.517 191.864 361.664 185.387C362.975 183.167 364.825 181.35 367.027 180.12C369.228 178.891 371.702 178.292 374.196 178.387C377.523 178.387 380.896 178.387 384.222 178.387C384.976 178.445 385.734 178.341 386.448 178.081C387.162 177.821 387.817 177.41 388.373 176.874C388.928 176.338 389.373 175.689 389.678 174.966C389.983 174.243 390.143 173.462 390.147 172.672C390.147 169.195 388.233 167.576 384.04 167.528H372.966C367.344 167.761 361.959 169.956 357.671 173.763C353.384 177.57 350.441 182.77 349.314 188.53C348.781 192.494 348.446 196.484 348.312 200.484V200.722ZM415.986 189.864L405.277 170.814C405.011 170.061 404.597 169.375 404.061 168.8C403.525 168.226 402.879 167.775 402.165 167.479C401.452 167.182 400.686 167.046 399.919 167.079C399.152 167.113 398.399 167.314 397.712 167.671C397.09 168.051 396.552 168.564 396.134 169.176C395.715 169.788 395.426 170.486 395.284 171.224C395.142 171.962 395.151 172.722 395.31 173.456C395.469 174.19 395.775 174.88 396.208 175.482C400.173 182.815 404.229 190.149 408.33 197.388C410.148 200.193 411.073 203.526 410.973 206.913C410.7 214.009 410.973 221.2 410.973 228.248C410.862 229.094 410.956 229.956 411.246 230.755C411.537 231.553 412.015 232.263 412.637 232.818C413.259 233.372 414.004 233.755 414.804 233.93C415.605 234.105 416.434 234.067 417.217 233.82C418.532 233.521 419.688 232.709 420.45 231.55C421.213 230.391 421.523 228.971 421.318 227.581C421.318 220.581 421.318 213.58 421.318 206.627C421.245 203.126 422.199 199.686 424.052 196.769C428.063 189.768 432.027 182.482 435.901 175.577C436.33 174.97 436.634 174.277 436.793 173.541C436.951 172.805 436.961 172.043 436.822 171.303C436.684 170.563 436.399 169.861 435.986 169.242C435.573 168.624 435.041 168.102 434.424 167.71C433.808 167.318 433.119 167.064 432.404 166.966C431.688 166.867 430.961 166.925 430.268 167.137C429.575 167.348 428.932 167.708 428.38 168.194C427.827 168.679 427.378 169.28 427.06 169.957C426.285 171.148 425.647 172.434 424.918 173.672C422.002 178.863 419.176 183.958 415.986 189.626V189.864Z" fill="#FD9902"/>
<path d="M431.207 252.201C438.089 252.201 444.879 252.201 451.943 252.201C455.224 252.201 458.551 251.82 461.877 251.582C456.195 272.343 446.708 291.752 433.942 308.73C411.777 338.856 380.941 360.748 345.974 371.182C311.007 381.616 273.758 380.04 239.713 366.687C215.216 357.043 193.179 341.622 175.315 321.625C157.452 301.628 144.244 277.594 136.72 251.392L159.506 252.059H167.481L170.261 254.106C173.398 256.19 175.876 259.195 177.384 262.745C178.892 266.295 179.363 270.232 178.738 274.06C178.373 277.537 177.781 280.966 177.371 284.442C177.061 287.042 177.255 289.68 177.941 292.2C178.627 294.72 179.792 297.069 181.365 299.109C182.938 301.148 184.888 302.836 187.099 304.072C189.31 305.308 191.735 306.066 194.232 306.301L202.845 307.016C207.088 307.066 211.196 308.577 214.533 311.315C217.87 314.053 220.249 317.865 221.302 322.16C222.35 325.589 223.307 329.065 224.583 332.446C225.803 336.124 228.134 339.288 231.225 341.462C234.316 343.635 237.998 344.699 241.718 344.495C247.033 343.691 252.235 342.22 257.213 340.114C261.005 338.407 265.22 338.009 269.244 338.977C273.268 339.945 276.892 342.228 279.589 345.495C281.457 347.59 283.326 349.733 285.24 351.829C287.015 353.952 289.204 355.653 291.66 356.819C294.117 357.985 296.783 358.588 299.481 358.588C302.179 358.588 304.845 357.985 307.302 356.819C309.758 355.653 311.947 353.952 313.722 351.829C317.186 348.162 320.74 344.59 324.295 340.971C327.133 339.343 330.305 338.454 333.542 338.38C336.778 338.305 339.984 339.047 342.888 340.542C345.213 341.685 347.446 342.495 349.998 343.4C352.423 344.389 355.018 344.841 357.618 344.728C360.219 344.616 362.77 343.941 365.108 342.746C367.447 341.551 369.522 339.862 371.204 337.786C372.886 335.71 374.138 333.292 374.88 330.684C375.837 327.732 376.657 324.684 377.614 321.731C378.732 317.555 381.11 313.867 384.394 311.215C387.679 308.564 391.694 307.091 395.843 307.016C399.471 306.929 403.085 306.514 406.644 305.777C417.444 303.253 423.004 293.395 421.136 281.204C420.285 276.497 419.994 271.698 420.27 266.917C420.813 263.721 422.093 260.711 423.999 258.147C425.904 255.583 428.378 253.543 431.207 252.201Z" fill="#978ECA"/>
<path d="M461.877 149.908L431.207 149.098C428.377 147.746 425.904 145.696 423.998 143.124C422.093 140.553 420.814 137.537 420.27 134.335C419.968 129.554 420.26 124.752 421.136 120.048C423.323 106.095 415.986 96.2366 402.542 94.9508C399.945 94.9508 397.256 94.6174 394.658 94.2364C390.762 93.9741 387.038 92.461 383.996 89.9038C380.953 87.3467 378.741 83.8702 377.66 79.9495C376.612 76.7588 375.792 73.5204 374.743 70.4249C373.566 66.1187 370.975 62.3835 367.425 59.8753C363.875 57.367 359.592 56.2462 355.33 56.7094C351.018 57.429 346.829 58.7923 342.888 60.7574C339.954 62.1754 336.748 62.87 333.516 62.7874C330.284 62.7048 327.114 61.8474 324.249 60.2812L312.902 48.6135C311.154 46.7459 309.066 45.262 306.761 44.2489C304.456 43.2359 301.981 42.714 299.481 42.714C296.981 42.714 294.506 43.2359 292.201 44.2489C289.896 45.262 287.809 46.7459 286.06 48.6135C283.69 51.0423 281.503 53.7092 279.133 56.2332C276.514 59.2455 273.07 61.3415 269.27 62.2362C265.47 63.1309 261.499 62.7809 257.896 61.2336C254.843 60.1383 251.881 58.7572 248.782 57.6619C246.376 56.6987 243.807 56.2596 241.232 56.3713C238.658 56.4831 236.132 57.1434 233.811 58.3118C231.489 59.4802 229.421 61.132 227.732 63.1658C226.043 65.1997 224.77 67.5727 223.991 70.1392C222.852 73.6633 221.94 77.2826 220.71 80.8067C219.68 84.16 217.757 87.1371 215.166 89.3892C212.575 91.6412 209.424 93.0749 206.081 93.5221C201.524 94.2841 196.602 94.1412 192.045 95.1889C183.523 97.0462 174.819 105.475 177.69 120.858C178.59 125.285 178.836 129.83 178.419 134.335C177.865 137.614 176.555 140.703 174.602 143.334C172.648 145.964 170.11 148.057 167.208 149.432C159.415 149.432 151.622 149.432 143.829 149.432C141.46 149.432 139.272 149.86 136.72 150.051C144.76 121.699 159.527 95.9303 179.649 75.1396C204.319 48.7698 236.479 31.4317 271.34 25.7068C296.256 21.0528 321.86 22.4137 346.196 29.6855C370.531 36.9572 392.953 49.9473 411.748 67.6628C434.572 88.3909 451.504 115.278 460.692 145.384C461.194 146.86 461.513 148.622 461.877 149.908Z" fill="#978ECA"/>
<path d="M167.208 149.241C170.088 147.884 172.611 145.821 174.563 143.225C176.515 140.63 177.838 137.58 178.419 134.335C178.798 129.906 178.536 125.443 177.644 121.096C174.773 105.713 183.477 97.284 191.999 95.4267C196.556 94.379 201.387 94.5218 206.035 93.7599C209.378 93.3126 212.529 91.879 215.12 89.627C217.711 87.3749 219.634 84.3978 220.664 81.0445C221.894 77.5204 222.806 73.901 223.945 70.3769C224.725 67.8104 225.998 65.4375 227.686 63.4036C229.375 61.3698 231.443 59.718 233.765 58.5496C236.086 57.3812 238.612 56.7209 241.186 56.6091C243.761 56.4974 246.33 56.9365 248.736 57.8997C251.744 58.995 254.706 60.3761 257.851 61.4714C261.453 63.0186 265.425 63.3687 269.224 62.474C273.024 61.5793 276.468 59.4833 279.087 56.471C281.457 53.947 283.645 51.2801 286.014 48.8513C287.765 46.9618 289.861 45.4593 292.178 44.4332C294.496 43.4072 296.987 42.8784 299.504 42.8784C302.02 42.8784 304.511 43.4072 306.829 44.4332C309.146 45.4593 311.242 46.9618 312.993 48.8513L324.34 60.4713C312.913 64.1405 302.003 69.3771 291.893 76.0441C283.736 81.997 276.125 88.7594 268.287 95.0933C267.147 95.6648 266.054 96.3315 264.914 96.8078C260.357 98.8555 255.8 100.522 251.243 102.951C236.971 110.609 224.598 121.63 215.104 135.144C212.235 139.757 209.604 144.526 207.22 149.431H182.292L167.208 149.241Z" fill="#FDD303"/>
<path d="M324.249 341.019C320.694 344.639 317.139 348.21 313.676 351.877C311.901 354 309.712 355.702 307.255 356.867C304.799 358.033 302.132 358.636 299.435 358.636C296.737 358.636 294.07 358.033 291.614 356.867C289.158 355.702 286.969 354 285.193 351.877C283.279 349.782 281.411 347.639 279.542 345.543C276.845 342.276 273.221 339.993 269.197 339.025C265.174 338.058 260.959 338.456 257.167 340.162C252.189 342.268 246.987 343.739 241.672 344.543C237.952 344.748 234.269 343.683 231.179 341.51C228.088 339.337 225.757 336.173 224.537 332.495C223.261 329.113 222.304 325.637 221.256 322.208C220.203 317.913 217.823 314.101 214.487 311.363C211.15 308.625 207.041 307.114 202.799 307.064L194.186 306.35C191.689 306.114 189.263 305.356 187.053 304.12C184.842 302.885 182.892 301.197 181.319 299.157C179.745 297.117 178.581 294.768 177.895 292.248C177.208 289.729 177.014 287.09 177.324 284.491C177.734 281.014 178.327 277.585 178.691 274.109C179.316 270.28 178.845 266.344 177.337 262.794C175.829 259.244 173.352 256.238 170.215 254.155L167.572 252.155H182.428H207.356C207.917 253.95 208.603 255.701 209.407 257.393C214.852 267.038 221.745 275.705 229.823 283.062C237.33 290.178 245.886 295.984 255.161 300.254L268.332 306.35C270.246 308.255 272.069 310.207 274.028 312.017C283.567 320.762 294.324 327.94 305.929 333.304C311.808 336.066 317.96 338.448 324.249 341.019Z" fill="#FDD303"/>
<path d="M167.025 167.051C167.837 167.074 168.635 167.278 169.366 167.65C170.096 168.022 170.742 168.553 171.26 169.207C171.778 169.861 172.156 170.623 172.369 171.442C172.582 172.261 172.624 173.119 172.494 173.957C172.494 188.752 172.494 203.562 172.494 218.389C172.494 223.151 172.494 223.151 177.051 223.151H197.65C200.475 223.151 202.891 224.485 203.255 227.437C203.342 229.38 202.723 231.285 201.523 232.771C200.794 233.724 198.835 233.914 197.422 233.962C187.305 233.962 177.142 233.962 167.025 233.962C166.28 233.898 165.555 233.676 164.895 233.308C164.236 232.94 163.655 232.435 163.189 231.824C162.724 231.212 162.383 230.508 162.189 229.753C161.994 228.999 161.95 228.21 162.058 227.437C162.058 209.372 162.058 191.323 162.058 173.29C161.976 172.536 162.041 171.774 162.249 171.047C162.457 170.321 162.804 169.646 163.268 169.063C163.732 168.48 164.304 168.001 164.95 167.656C165.595 167.31 166.302 167.104 167.025 167.051Z" fill="#FDE158"/>
<path d="M268.196 94.9505C276.034 88.569 283.644 81.8066 291.802 75.9013C301.911 69.2343 312.822 63.9978 324.249 60.3286C327.114 61.8947 330.284 62.7522 333.516 62.8348C336.747 62.9174 339.954 62.2228 342.888 60.8048C346.828 58.8397 351.018 57.4764 355.329 56.7568C359.568 56.2834 363.831 57.3773 367.378 59.8483C370.925 62.3192 373.531 66.011 374.743 70.2818C375.791 73.4725 376.612 76.7109 377.66 79.8064C378.74 83.7271 380.953 87.2036 383.996 89.7607C387.038 92.3179 390.762 93.831 394.658 94.0933C397.256 94.4743 399.945 94.6172 402.542 94.8077C416.214 95.903 423.323 105.951 421.136 119.905C420.259 124.608 419.968 129.411 420.27 134.192C420.793 137.42 422.063 140.465 423.969 143.062C425.875 145.66 428.36 147.732 431.207 149.098H392.288C386.142 136.368 377.492 125.137 366.905 116.143C352.755 103.62 335.647 95.2978 317.368 92.0455C305.866 89.9292 294.098 89.9292 282.596 92.0455C277.766 92.8551 272.981 93.9505 268.196 94.9505Z" fill="#FDE35A"/>
<path d="M324.249 341.019C318.052 338.448 311.808 336.257 305.747 333.257C294.142 327.892 283.386 320.714 273.847 311.969C271.887 310.159 270.064 308.207 268.15 306.302C269.153 306.302 270.201 306.588 271.158 306.873C286.192 311.215 301.963 311.996 317.322 309.159C319.009 308.826 320.695 308.493 322.381 308.064C344.552 303.064 364.517 290.539 379.164 272.442C383.933 265.984 388.316 259.224 392.289 252.202H431.207C428.361 253.557 425.876 255.619 423.97 258.209C422.063 260.8 420.793 263.839 420.27 267.061C419.994 271.842 420.285 276.641 421.136 281.347C423.004 293.539 417.444 303.397 406.644 305.921C403.14 306.599 399.588 306.966 396.025 307.016C391.876 307.092 387.861 308.565 384.577 311.216C381.292 313.867 378.914 317.555 377.797 321.732C376.84 324.684 376.019 327.732 375.062 330.685C374.331 333.337 373.074 335.799 371.372 337.911C369.67 340.022 367.562 341.735 365.185 342.939C362.808 344.143 360.215 344.81 357.575 344.898C354.935 344.986 352.306 344.492 349.861 343.448C347.491 342.543 345.076 341.734 342.752 340.591C339.859 339.111 336.67 338.378 333.451 338.453C330.231 338.527 327.076 339.407 324.249 341.019Z" fill="#FDE35A"/>
<path d="M392.288 252.107C388.319 259.162 383.935 265.953 379.164 272.442C364.552 290.512 344.639 303.034 322.517 308.064C320.831 308.493 319.145 308.826 317.459 309.159C316.708 308.628 315.896 308.196 315.044 307.874C303.715 305.444 292.904 300.877 283.143 294.396L272.798 287.491C273.002 286.118 273.002 284.721 272.798 283.348C272.154 281.638 272.107 279.746 272.665 278.004C273.224 276.262 274.352 274.782 275.852 273.823C276.693 272.926 277.372 271.877 277.857 270.728C276.835 270.085 275.706 269.649 274.53 269.442C272.694 269.529 270.891 268.915 269.457 267.714C268.023 266.513 267.056 264.808 266.737 262.917C266.127 261.615 265.362 260.399 264.458 259.298C263.365 261.251 262.727 262.632 261.906 264.06C261.086 265.489 259.673 267.251 258.534 268.823H255.025L253.111 265.489C250.513 261.06 247.916 256.631 245.364 252.202L392.288 252.107ZM293.169 268.775C292.025 268.734 290.88 268.814 289.751 269.013C288.367 269.405 287.012 269.898 285.695 270.489C286.463 271.761 287.3 272.985 288.202 274.156C289.705 275.966 291.984 277.157 291.209 280.443C290.958 282.721 290.958 285.022 291.209 287.3L298 284.348C298 284.348 298 284.348 298 284.062C300.233 284.872 302.557 285.681 304.653 286.396C305.67 286.691 306.706 286.914 307.752 287.062C307.929 286.071 307.929 285.054 307.752 284.062C306.911 282.214 306.763 280.104 307.337 278.147C307.91 276.19 309.164 274.529 310.851 273.49C311.898 272.495 312.831 271.376 313.631 270.156C310.413 270.005 307.248 269.247 304.289 267.918C302.101 266.251 301.144 262.727 299.184 259.155C297.863 261.727 297.043 263.536 296.04 265.156C295.155 266.423 294.196 267.631 293.169 268.775ZM332.726 284.157L338.741 286.015L342.524 287.158C342.704 285.799 342.704 284.421 342.524 283.062C341.899 281.445 341.835 279.651 342.343 277.99C342.851 276.329 343.898 274.905 345.303 273.966C346.303 273.055 347.205 272.033 347.992 270.918V269.775C344.867 270.194 341.704 269.389 339.113 267.516C336.521 265.643 334.684 262.835 333.956 259.631C332.407 261.822 331.632 263.632 330.584 265.299C329.624 266.541 328.589 267.718 327.485 268.823C326.126 268.853 324.771 268.98 323.429 269.204C322.301 269.59 321.204 270.068 320.148 270.632C320.831 271.632 321.287 273.013 322.244 273.68C323.844 274.719 325.025 276.334 325.562 278.221C326.1 280.108 325.957 282.135 325.161 283.919C325.021 284.253 324.929 284.606 324.887 284.967C324.614 287.396 325.571 288.11 327.667 286.967C329.763 285.824 331.131 285.11 332.726 284.157Z" fill="#FDD303"/>
<path d="M317.368 92.0933C335.647 95.3455 352.755 103.668 366.905 116.191C377.492 125.185 386.142 136.415 392.288 149.146H270.611H245.364C246.959 146.145 248.372 143.05 250.24 140.193C251.978 137.777 253.834 135.456 255.8 133.24C255.8 139.192 255.8 139.192 260.63 136.478L262.681 135.192C265.826 133.335 267.74 136.43 270.246 137.24C271.16 137.472 272.089 137.631 273.026 137.716C273.182 136.819 273.182 135.899 273.026 135.002C272.153 133.03 272.025 130.786 272.667 128.72C273.31 126.654 274.675 124.917 276.49 123.858C276.755 123.628 276.999 123.373 277.219 123.096C278.495 121.477 278.267 120.477 276.216 120.143C274.602 120.017 273.001 119.746 271.431 119.334C270.384 118.815 269.403 118.159 268.514 117.381C268.924 117.171 269.32 116.933 269.699 116.667C281.982 105.987 296.356 98.2493 311.808 93.9982C313.813 93.5696 315.59 92.76 317.368 92.0933ZM328.442 119.477L319.874 120.524C320.467 121.858 320.558 122.429 320.877 122.667C323.117 123.893 324.831 125.957 325.676 128.448C326.522 130.938 326.435 133.67 325.434 136.097C324.842 137.764 326.072 138.859 327.895 137.907C329.718 136.954 331.222 135.859 332.908 134.859L338.969 136.716L342.751 137.859C342.932 136.484 342.932 135.09 342.751 133.716C342.152 132.148 342.079 130.415 342.542 128.798C343.005 127.181 343.979 125.776 345.303 124.81C346.482 123.703 347.551 122.475 348.493 121.143C345.217 120.919 342.006 120.08 339.014 118.667C336.781 117 335.87 113.524 334.138 110.428L328.442 119.477ZM298 134.811C300.552 135.716 303.104 136.573 305.565 137.621C308.025 138.669 308.937 138.002 308.162 135.859C307.177 133.556 307.057 130.951 307.826 128.56C308.594 126.169 310.194 124.168 312.309 122.953C312.719 122.667 312.856 122.001 313.494 120.858C310.35 120.668 307.264 119.894 304.38 118.572C302.147 116.905 301.19 113.381 299.23 109.952C298.045 112.238 297.316 113.809 296.405 115.238C295.493 116.667 294.172 118.095 293.032 119.524C290.405 119.152 287.737 119.777 285.513 121.286C285.513 121.762 285.513 121.905 285.513 122.001C289.614 125.763 292.713 129.811 290.07 136.287C289.432 138.002 290.754 139.002 292.576 137.954L298 134.811Z" fill="#FDD303"/>
<path d="M255.8 133.287C253.833 135.503 251.978 137.824 250.24 140.24C248.371 143.097 246.959 146.193 245.364 149.193H207.22C209.603 144.288 212.235 139.519 215.104 134.906C224.598 121.392 236.97 110.37 251.242 102.713C255.8 100.284 260.357 98.6171 264.914 96.5693C266.053 96.0931 267.147 95.4263 268.286 94.8549C273.071 93.8548 277.856 92.7595 282.687 91.8546C294.189 89.7382 305.957 89.7382 317.459 91.8546C315.681 92.5213 313.904 93.3309 312.081 93.8072C296.629 98.0583 282.256 105.796 269.973 116.476C269.594 116.742 269.198 116.98 268.788 117.19C267.557 114.904 266.281 112.666 264.595 109.618C263.456 111.761 262.863 113.047 262.134 114.38C261.405 115.714 259.764 117.762 258.58 119.476C257.443 119.356 256.298 119.356 255.162 119.476C253.783 119.866 252.429 120.343 251.106 120.905C251.725 122.213 252.506 123.43 253.43 124.524C255.936 127.096 257.714 129.572 255.8 133.287Z" fill="#F9C500"/>
<path d="M245.364 252.107C247.916 256.536 250.514 260.965 253.112 265.394L255.026 268.727C249.694 270.537 249.557 270.68 254.023 274.776C255.109 275.653 255.894 276.873 256.264 278.254C256.633 279.635 256.567 281.104 256.074 282.443C255.804 284.399 255.667 286.372 255.664 288.348L262.682 284.491C264.211 284.473 265.737 284.617 267.239 284.919C269.252 285.637 271.216 286.496 273.118 287.491L283.463 294.396C293.224 300.877 304.034 305.444 315.363 307.874C316.216 308.196 317.027 308.628 317.778 309.159C302.419 311.996 286.648 311.215 271.614 306.873C270.657 306.588 269.609 306.492 268.606 306.302L255.436 300.206C246.16 295.936 237.605 290.131 230.098 283.014C222.019 275.657 215.126 266.99 209.681 257.345C208.877 255.654 208.192 253.903 207.631 252.107H245.364Z" fill="#F9C501"/>
<path d="M208.04 200.436C208.04 192.102 208.04 183.816 208.04 175.481C208.04 167.957 210.319 167.052 215.97 167.195C225.084 167.433 234.199 167.195 243.313 167.195C247.87 167.195 249.42 168.529 249.556 171.957C249.693 175.386 247.642 177.863 243.359 177.958C236.341 177.958 229.277 177.958 222.259 177.958C219.752 177.958 218.704 178.577 218.886 181.387C219.069 184.765 219.069 188.152 218.886 191.53C218.886 194.34 219.798 194.959 222.304 194.912C229.095 194.912 235.976 194.674 242.721 194.912C244.951 195.013 247.077 195.922 248.736 197.483C249.398 198.106 249.871 198.918 250.096 199.819C250.321 200.72 250.289 201.67 250.003 202.552C249.717 203.433 249.189 204.208 248.486 204.78C247.783 205.352 246.936 205.696 246.047 205.77C243.344 206.303 240.594 206.526 237.844 206.436C232.512 206.436 227.226 206.436 221.894 206.436C219.707 206.436 218.75 207.056 218.886 209.484C218.886 213.104 218.886 216.723 218.886 220.342C218.886 222.819 219.798 223.39 221.94 223.343C229.003 223.343 236.022 223.343 243.085 223.343C247.642 223.343 249.875 225.629 249.556 229.724C249.576 230.305 249.48 230.884 249.276 231.424C249.072 231.965 248.764 232.456 248.371 232.867C247.978 233.277 247.508 233.599 246.991 233.813C246.473 234.026 245.92 234.125 245.364 234.105C234.518 234.105 223.672 234.105 212.825 234.105C211.893 233.875 211.031 233.406 210.315 232.741C209.599 232.076 209.052 231.236 208.724 230.296C208.152 226.501 207.923 222.658 208.04 218.818C207.949 212.485 208.04 206.484 208.04 200.436Z" fill="#FDE158"/>
<path d="M332.725 215.294H311.899C311.899 219.485 311.899 223.581 311.899 227.629C311.899 231.677 310.395 233.867 306.977 233.963C303.559 234.058 301.554 231.772 301.508 227.581C301.508 213.961 301.508 200.341 301.508 186.673C301.451 184.074 301.902 181.491 302.836 179.081C303.77 176.672 305.165 174.488 306.937 172.663C308.708 170.839 310.819 169.412 313.138 168.472C315.457 167.531 317.935 167.097 320.421 167.195C323.275 166.745 326.187 166.9 328.983 167.653C331.778 168.406 334.399 169.74 336.69 171.576C338.625 173.205 340.198 175.254 341.299 177.581C342.401 179.909 343.005 182.458 343.07 185.054V227.915C343.07 232.105 341.612 233.963 338.513 234.153C337.758 234.242 336.994 234.153 336.276 233.894C335.558 233.635 334.904 233.212 334.363 232.655C333.822 232.098 333.406 231.422 333.146 230.676C332.886 229.93 332.789 229.133 332.862 228.343C332.589 224.009 332.725 220.057 332.725 215.294ZM332.725 204.103C332.725 197.341 332.725 191.007 332.725 184.625C332.461 182.86 331.615 181.247 330.333 180.065C329.052 178.882 327.416 178.205 325.707 178.148C323.793 178.148 321.788 178.148 319.828 178.148C318.957 178.049 318.076 178.131 317.235 178.389C316.394 178.647 315.611 179.076 314.929 179.651C314.247 180.226 313.681 180.937 313.263 181.741C312.844 182.546 312.582 183.429 312.491 184.339C311.944 190.864 312.491 197.436 312.491 204.151L332.725 204.103Z" fill="#FDE258"/>
<path d="M265.324 200.722C265.324 206.389 265.324 212.103 265.324 217.771C265.229 218.492 265.293 219.227 265.512 219.919C265.731 220.611 266.099 221.241 266.587 221.761C267.076 222.281 267.672 222.677 268.33 222.918C268.988 223.159 269.69 223.239 270.383 223.152C273.755 223.152 277.082 223.152 280.409 223.152C281.072 223.279 281.754 223.25 282.405 223.069C283.057 222.887 283.661 222.556 284.176 222.101C284.69 221.645 285.101 221.076 285.38 220.434C285.658 219.793 285.797 219.094 285.786 218.39C286.014 214.294 286.105 210.199 286.014 206.151C286.014 205.484 284.829 204.484 284.1 204.341C282.323 204.341 280.409 204.341 278.586 204.341C277.061 204.38 275.583 203.794 274.467 202.708C273.351 201.622 272.687 200.123 272.616 198.531C272.743 197.007 273.422 195.591 274.515 194.573C275.608 193.555 277.031 193.012 278.495 193.054C282.517 192.84 286.548 192.84 290.571 193.054C291.333 193.008 292.096 193.127 292.812 193.405C293.528 193.683 294.18 194.113 294.729 194.668C295.277 195.223 295.709 195.891 295.998 196.63C296.286 197.369 296.425 198.162 296.404 198.959C296.655 206.298 296.473 213.646 295.857 220.961C295.435 224.719 293.67 228.172 290.915 230.627C288.16 233.082 284.619 234.358 281.001 234.201C277.401 234.201 273.801 234.201 270.292 234.201C268.178 234.221 266.083 233.795 264.132 232.947C262.18 232.1 260.413 230.849 258.936 229.27C257.459 227.691 256.303 225.816 255.536 223.758C254.77 221.7 254.41 219.501 254.478 217.294C254.478 206.293 254.478 195.34 254.478 184.339C254.412 182.047 254.802 179.765 255.621 177.638C256.44 175.511 257.672 173.583 259.238 171.978C260.805 170.372 262.673 169.122 264.724 168.307C266.775 167.492 268.966 167.13 271.157 167.243C277.492 167.719 283.826 167.243 290.207 167.243C294.035 167.243 296.359 169.29 296.359 172.433C296.318 173.22 296.129 173.99 295.801 174.699C295.474 175.409 295.015 176.043 294.451 176.566C293.887 177.088 293.23 177.489 292.517 177.744C291.804 178 291.05 178.104 290.298 178.053C284.419 178.053 278.495 178.053 272.616 178.053C266.737 178.053 265.324 179.053 265.324 185.482V200.722Z" fill="#FDE158"/>
<path d="M348.312 200.484C348.438 196.404 348.773 192.334 349.314 188.292C350.441 182.532 353.384 177.332 357.671 173.525C361.959 169.718 367.344 167.523 372.966 167.29H384.04C388.233 167.29 390.147 168.957 390.147 172.434C390.143 173.224 389.983 174.005 389.678 174.728C389.373 175.451 388.929 176.1 388.373 176.636C387.817 177.172 387.162 177.583 386.448 177.843C385.734 178.103 384.977 178.207 384.223 178.148C380.896 178.148 377.523 178.148 374.197 178.148C371.702 178.054 369.228 178.652 367.027 179.882C364.826 181.112 362.975 182.929 361.664 185.149C357.563 191.626 357.745 210.389 362.075 216.723C363.308 218.697 364.989 220.322 366.969 221.452C368.949 222.582 371.166 223.182 373.422 223.2C377.022 223.2 380.577 223.2 384.177 223.2C387.777 223.2 390.876 226.105 390.01 229.581C389.6 231.248 387.732 233.772 386.547 233.772C379.798 234.28 373.015 233.896 366.358 232.629C361.081 231.081 356.458 227.72 353.233 223.089C350.008 218.458 348.371 212.826 348.585 207.103V200.484H348.312Z" fill="#FDE258"/>
<path d="M415.986 189.625C419.176 183.958 422.001 178.862 424.827 173.767C425.556 172.529 426.194 171.243 426.968 170.052C427.286 169.375 427.736 168.774 428.288 168.289C428.84 167.803 429.483 167.443 430.176 167.232C430.869 167.02 431.597 166.962 432.312 167.061C433.028 167.159 433.716 167.413 434.333 167.805C434.949 168.197 435.481 168.719 435.894 169.337C436.307 169.956 436.592 170.658 436.731 171.398C436.87 172.138 436.86 172.9 436.701 173.636C436.542 174.372 436.239 175.065 435.809 175.672C431.936 182.768 427.971 189.959 423.961 196.864C422.107 199.781 421.153 203.221 421.226 206.722C421.226 213.675 421.226 220.676 421.226 227.676C421.431 229.066 421.121 230.486 420.359 231.645C419.597 232.804 418.44 233.616 417.125 233.915C416.342 234.162 415.513 234.2 414.713 234.025C413.912 233.85 413.167 233.467 412.545 232.912C411.924 232.358 411.446 231.648 411.155 230.85C410.864 230.051 410.77 229.189 410.882 228.343C410.882 221.247 410.654 214.056 410.882 207.008C410.982 203.621 410.057 200.288 408.238 197.483C404.137 190.244 400.081 182.91 396.116 175.576C395.671 174.967 395.357 174.264 395.196 173.516C395.034 172.768 395.029 171.992 395.181 171.242C395.332 170.492 395.636 169.784 396.073 169.168C396.51 168.552 397.069 168.041 397.711 167.671C398.373 167.302 399.101 167.08 399.849 167.018C400.597 166.956 401.349 167.055 402.058 167.31C402.768 167.564 403.42 167.969 403.973 168.498C404.527 169.027 404.97 169.67 405.276 170.386L415.986 189.625Z" fill="#FDE258"/>
<path d="M272.935 287.491C271.033 286.496 269.069 285.637 267.056 284.92C265.555 284.617 264.028 284.474 262.499 284.491C264.322 278.49 264.185 273.014 258.489 269.109C258.489 269.109 258.489 269.109 258.489 268.775C259.628 267.204 260.813 265.68 261.861 264.013C262.909 262.346 263.319 261.394 264.413 259.251C265.316 260.351 266.082 261.568 266.692 262.87C267.073 264.752 268.099 266.423 269.575 267.572C271.051 268.72 272.878 269.266 274.712 269.109C275.888 269.316 277.017 269.752 278.039 270.395C277.554 271.544 276.875 272.593 276.034 273.49C274.534 274.449 273.406 275.929 272.848 277.671C272.289 279.413 272.336 281.305 272.98 283.015C273.203 284.499 273.188 286.012 272.935 287.491Z" fill="#FEFDF8"/>
<path d="M327.804 268.823C328.908 267.718 329.943 266.541 330.903 265.298C331.951 263.632 332.726 261.822 334.275 259.631C335.004 262.835 336.841 265.643 339.432 267.516C342.024 269.389 345.186 270.193 348.312 269.775V270.918C347.524 272.033 346.623 273.055 345.623 273.966C344.217 274.905 343.17 276.329 342.662 277.99C342.155 279.651 342.219 281.445 342.843 283.062C343.024 284.421 343.024 285.799 342.843 287.157L339.061 286.015L333.045 284.157C333.923 281.356 333.885 278.329 332.936 275.553C331.987 272.777 330.182 270.409 327.804 268.823Z" fill="#FEFDF9"/>
<path d="M293.169 268.775C294.244 267.636 295.248 266.427 296.177 265.156C297.18 263.537 298 261.727 299.322 259.155C301.281 262.727 302.238 266.251 304.426 267.918C307.414 269.258 310.611 270.016 313.859 270.156C313.06 271.376 312.127 272.495 311.079 273.49C309.392 274.529 308.139 276.19 307.565 278.147C306.992 280.104 307.14 282.214 307.98 284.062C308.157 285.054 308.157 286.071 307.98 287.062C306.934 286.914 305.899 286.691 304.881 286.396C302.648 285.681 300.324 284.872 298.228 284.062C299.104 281.287 299.084 278.288 298.17 275.526C297.256 272.764 295.499 270.392 293.169 268.775Z" fill="#FEFDF9"/>
<path d="M258.716 268.775C258.716 268.775 258.716 269.013 258.716 269.108C264.413 273.013 264.549 278.633 262.727 284.491L255.708 288.348C255.712 286.372 255.849 284.399 256.119 282.443C256.621 281.114 256.702 279.652 256.349 278.271C255.997 276.891 255.229 275.665 254.159 274.775C249.602 270.68 249.83 270.537 255.162 268.727L258.716 268.775Z" fill="#F2F9FA"/>
<path d="M293.169 268.776C295.466 270.419 297.186 272.802 298.066 275.562C298.947 278.322 298.939 281.307 298.045 284.063V284.348L291.255 287.301C291.003 285.023 291.003 282.722 291.255 280.443C292.029 277.157 289.751 275.967 288.247 274.157C287.345 272.985 286.508 271.761 285.74 270.49C287.058 269.899 288.413 269.405 289.796 269.014C290.91 268.817 292.04 268.738 293.169 268.776Z" fill="#F2FAFA"/>
<path d="M327.804 268.823C330.125 270.456 331.865 272.845 332.755 275.617C333.645 278.39 333.635 281.391 332.726 284.157C331.131 285.11 329.581 286.11 328.169 286.967C326.756 287.824 325.115 287.396 325.389 284.967C325.431 284.606 325.523 284.253 325.662 283.919C326.438 282.108 326.547 280.06 325.966 278.17C325.386 276.28 324.158 274.681 322.518 273.68C321.561 273.013 321.105 271.632 320.421 270.632C321.478 270.067 322.575 269.59 323.703 269.203C325.06 268.978 326.43 268.851 327.804 268.823Z" fill="#F2F9FA"/>
<path d="M258.717 119.524C259.902 117.81 261.132 116.143 262.271 114.429C263.411 112.714 263.593 112 264.732 109.666C266.418 112.714 267.695 114.952 268.925 117.238C269.814 118.016 270.794 118.672 271.842 119.191C273.412 119.603 275.012 119.874 276.627 120C278.677 120.334 278.905 121.334 277.629 122.953C277.409 123.23 277.165 123.485 276.9 123.715C275.085 124.775 273.72 126.511 273.078 128.577C272.436 130.644 272.564 132.887 273.437 134.859C273.592 135.756 273.592 136.676 273.437 137.573C272.5 137.488 271.57 137.329 270.657 137.097C268.15 136.288 266.099 133.192 263.092 135.049C264.687 129.239 264.96 123.763 259.218 119.905C258.717 120.048 258.717 119.715 258.717 119.524Z" fill="#FEFDF7"/>
<path d="M293.123 119.525C294.263 118.096 295.493 116.715 296.496 115.239C297.498 113.762 298.136 112.238 299.321 109.952C301.281 113.381 302.238 116.905 304.471 118.572C307.355 119.895 310.441 120.669 313.585 120.858C312.947 122.001 312.81 122.668 312.4 122.953C310.285 124.168 308.685 126.17 307.917 128.561C307.148 130.952 307.269 133.557 308.253 135.859C309.028 138.002 307.57 138.479 305.656 137.621C303.742 136.764 300.643 135.716 298.091 134.812C298.968 132.046 298.958 129.056 298.061 126.297C297.165 123.538 295.431 121.16 293.123 119.525Z" fill="#FEFDF8"/>
<path d="M328.442 119.477L334.275 110.238C336.007 113.334 336.918 116.81 339.151 118.477C342.143 119.891 345.354 120.729 348.63 120.953C347.655 122.358 346.54 123.651 345.304 124.811C343.89 125.743 342.833 127.164 342.317 128.825C341.801 130.487 341.858 132.285 342.478 133.907C342.659 135.282 342.659 136.676 342.478 138.05L338.696 136.907L332.635 135.05C332.496 133.991 332.496 132.918 332.635 131.859C333.368 130.21 333.509 128.34 333.032 126.592C332.555 124.843 331.492 123.332 330.037 122.335C329.365 121.475 328.827 120.511 328.442 119.477Z" fill="#FEFDF8"/>
<path d="M328.442 119.476C328.892 120.543 329.508 121.524 330.265 122.381C331.72 123.378 332.784 124.889 333.261 126.638C333.738 128.387 333.596 130.256 332.863 131.905C332.724 132.964 332.724 134.038 332.863 135.096C331.177 136.096 329.536 137.192 327.85 138.144C326.164 139.097 324.796 138.144 325.389 136.334C326.39 133.908 326.476 131.176 325.631 128.685C324.786 126.195 323.072 124.13 320.832 122.905C320.513 122.667 320.422 122.095 319.829 120.762L328.442 119.476Z" fill="#F2F9F9"/>
<path d="M258.717 119.524C258.717 119.524 258.717 120.001 259.036 120.096C264.778 123.953 264.504 129.62 262.909 135.24L260.859 136.526C255.846 139.24 255.846 139.24 256.028 133.287C257.942 129.573 256.028 127.096 253.567 124.715C252.643 123.621 251.862 122.404 251.243 121.096C252.566 120.535 253.92 120.057 255.299 119.667C256.431 119.5 257.576 119.452 258.717 119.524Z" fill="#F2FAFA"/>
<path d="M293.123 119.524C295.414 121.173 297.13 123.557 298.009 126.315C298.889 129.073 298.886 132.056 297.999 134.811L292.986 137.812C291.163 138.859 289.842 137.812 290.48 136.145C292.895 129.811 289.796 125.763 285.922 121.858C285.922 121.858 285.922 121.62 285.922 121.144C288.075 119.761 290.616 119.19 293.123 119.524Z" fill="#F2FAFA"/>
<path d="M332.634 204.15H312.355C312.355 197.436 311.945 190.864 312.355 184.339C312.446 183.428 312.708 182.545 313.126 181.741C313.545 180.936 314.111 180.226 314.793 179.651C315.474 179.076 316.258 178.647 317.099 178.389C317.94 178.131 318.821 178.049 319.692 178.148C321.652 178.148 323.657 178.148 325.571 178.148C327.262 178.239 328.871 178.938 330.126 180.127C331.38 181.316 332.202 182.922 332.452 184.673C332.817 191.054 332.634 197.388 332.634 204.15Z" fill="#FD9902"/>
</svg>
